<svg width="55" height="55" viewBox="0 0 55 55" fill="none" xmlns="http://www.w3.org/2000/svg">
<path d="M24.3924 1.82849C26.3153 0.718317 28.6843 0.718317 30.6072 1.82849L47.8049 11.7576C49.7278 12.8678 50.9123 14.9194 50.9123 17.1398V36.998C50.9123 39.2183 49.7278 41.27 47.8049 42.3802L30.6072 52.3093C28.6843 53.4195 26.3153 53.4195 24.3924 52.3093L7.19467 42.3802C5.2718 41.27 4.08727 39.2183 4.08727 36.998V17.1398C4.08727 14.9194 5.2718 12.8678 7.19468 11.7576L24.3924 1.82849Z" fill="#393E46"/>
<path d="M40.7308 19.8598H31.4691V17.1992H40.7308V19.8598ZM43.0145 33.1624C42.4297 34.8878 40.3299 37.1532 36.2653 37.1532C32.1981 37.1532 28.9036 34.8532 28.9036 29.604C28.9036 24.4026 31.9798 21.7288 36.1357 21.7288C40.2135 21.7288 42.7035 24.0993 43.2473 27.6165C43.3505 28.2897 43.3915 29.1969 43.373 30.4633H32.7525C32.9245 34.7348 37.3609 34.8692 38.8229 33.1624H43.0145ZM32.8451 27.8414H39.4143C39.2754 25.7834 37.9113 24.8895 36.137 24.8895C34.1973 24.8895 33.1243 25.9111 32.8451 27.8414ZM20.1777 37.1373H11.6226V17.2272H20.8221C28.0674 17.3349 28.205 24.4691 24.4209 26.414C29.0002 28.0901 29.1537 37.1373 20.1777 37.1373ZM15.5919 25.1808H20.3339C23.6522 25.1808 24.1788 21.19 19.9211 21.19H15.5919V25.1808ZM20.0785 29.1716H15.5919V33.1837H20.0123C24.0544 33.1837 23.807 29.1716 20.0785 29.1716Z" fill="#EEEEEE"/>
</svg>
