<svg width="55" height="55" viewBox="0 0 55 55" fill="none" xmlns="http://www.w3.org/2000/svg">
<path d="M24.3924 2.69067C26.3153 1.5805 28.6843 1.5805 30.6072 2.69067L47.8049 12.6198C49.7278 13.7299 50.9123 15.7816 50.9123 18.002V37.8602C50.9123 40.0805 49.7278 42.1322 47.8049 43.2424L30.6072 53.1715C28.6843 54.2817 26.3153 54.2817 24.3924 53.1715L7.19467 43.2424C5.2718 42.1322 4.08727 40.0805 4.08727 37.8602V18.002C4.08727 15.7816 5.2718 13.7299 7.19468 12.6198L24.3924 2.69067Z" fill="#393E46"/>
<path d="M39.5152 27.8302C37.7545 27.8302 32.8973 27.155 28.5499 29.0964C23.8272 31.206 20.4078 34.4782 18.9175 36.5135" stroke="#EEEEEE" stroke-width="1.86445" stroke-linecap="round" stroke-linejoin="round"/>
<path d="M22.9941 16.7739C24.8596 18.5118 28.9303 22.9362 30.4441 27.3287C31.958 31.7213 32.5182 37.122 32.8639 38.659" stroke="#EEEEEE" stroke-width="1.86445" stroke-linecap="round" stroke-linejoin="round"/>
<path d="M15.4844 26.3565C17.7748 26.4935 23.838 26.6168 27.7181 24.9735C31.5982 23.3303 34.9368 20.3077 36.0821 19.3486M16.3004 32.4371C17.3688 35.0021 19.2958 37.1236 21.7567 38.4444" stroke="#EEEEEE" stroke-width="1.86445" stroke-linecap="round" stroke-linejoin="round"/>
<path d="M15.4844 27.9311C15.4802 24.8502 16.6636 21.8863 18.7886 19.6555M27.4997 15.9158C25.8697 15.9138 24.2564 16.2444 22.7585 16.8874C21.2607 17.5305 19.9098 18.4724 18.7886 19.6555M32.3058 16.9155C33.6741 17.5141 34.9191 18.3622 35.9771 19.4164C37.1001 20.5316 37.9909 21.8582 38.5982 23.3197C39.2054 24.7812 39.517 26.3485 39.515 27.9311C39.515 29.4102 39.2477 30.8274 38.758 32.1365M27.4997 39.9464C29.0734 39.9484 30.6322 39.6403 32.0868 39.0397C33.5414 38.439 34.8633 37.5576 35.9771 36.4457" stroke="#EEEEEE" stroke-width="1.86445" stroke-linecap="round" stroke-linejoin="round"/>
<path d="M39.515 27.9311C39.517 29.5137 39.2054 31.081 38.5982 32.5425C37.9909 34.0039 37.1001 35.3306 35.9771 36.4457C34.8633 37.5576 33.5414 38.439 32.0868 39.0397C30.6322 39.6403 29.0734 39.9484 27.4997 39.9464C20.8636 39.9464 15.4844 34.5671 15.4844 27.9311C15.4802 24.8502 16.6636 21.8863 18.7886 19.6555C19.9098 18.4724 21.2607 17.5305 22.7585 16.8874C24.2564 16.2444 25.8697 15.9138 27.4997 15.9158C29.0734 15.9137 30.6322 16.2219 32.0868 16.8225C33.5414 17.4232 34.8633 18.3046 35.9771 19.4164C37.1001 20.5316 37.9909 21.8582 38.5982 23.3197C39.2054 24.7812 39.517 26.3485 39.515 27.9311V27.9311Z" stroke="#EEEEEE" stroke-width="1.86445" stroke-linecap="round" stroke-linejoin="round"/>
</svg>
