<svg width="32" height="25" viewBox="0 0 32 25" fill="none" xmlns="http://www.w3.org/2000/svg">
<path d="M0.00585938 4.268L15.9999 12.264L31.9939 4.268C31.9347 3.24889 31.488 2.29098 30.7455 1.59045C30.003 0.889931 29.0207 0.499813 27.9999 0.5H3.99986C2.97903 0.499813 1.99675 0.889931 1.25421 1.59045C0.511676 2.29098 0.0650675 3.24889 0.00585938 4.268Z" fill="#EEEEEE"/>
<path d="M32 8.73633L16 16.7363L0 8.73633V20.5003C0 21.5612 0.421427 22.5786 1.17157 23.3288C1.92172 24.0789 2.93913 24.5003 4 24.5003H28C29.0609 24.5003 30.0783 24.0789 30.8284 23.3288C31.5786 22.5786 32 21.5612 32 20.5003V8.73633Z" fill="#EEEEEE"/>
</svg>
