<svg width="19" height="115" viewBox="0 0 19 115" fill="none" xmlns="http://www.w3.org/2000/svg">
<path d="M17.228 10.2006L15.452 10.2006L15.452 2.92861L9.812 2.92861L9.812 8.83261L8.036 8.83261L8.036 2.92861L0.5 2.92861L0.5 0.744605L17.228 0.744606L17.228 10.2006ZM0.283999 18.5744C0.283999 17.3424 0.563999 16.2224 1.124 15.2144C1.684 14.2224 2.476 13.4384 3.5 12.8624C4.54 12.3024 5.74 12.0224 7.1 12.0224C8.444 12.0224 9.628 12.3104 10.652 12.8864C11.692 13.4784 12.484 14.2784 13.028 15.2864C13.588 16.2944 13.868 17.4224 13.868 18.6704C13.868 19.9184 13.588 21.0464 13.028 22.0544C12.484 23.0624 11.7 23.8544 10.676 24.4304C9.652 25.0224 8.46 25.3184 7.1 25.3184C5.74 25.3184 4.54 25.0144 3.5 24.4064C2.476 23.8144 1.684 23.0064 1.124 21.9824C0.563999 20.9584 0.283999 19.8224 0.283999 18.5744ZM2.204 18.5744C2.204 19.3584 2.388 20.0944 2.756 20.7824C3.124 21.4704 3.676 22.0224 4.412 22.4384C5.148 22.8704 6.044 23.0864 7.1 23.0864C8.156 23.0864 9.052 22.8784 9.788 22.4624C10.524 22.0464 11.068 21.5024 11.42 20.8304C11.788 20.1584 11.972 19.4304 11.972 18.6464C11.972 17.8464 11.788 17.1104 11.42 16.4384C11.068 15.7824 10.524 15.2544 9.788 14.8544C9.052 14.4544 8.156 14.2544 7.1 14.2544C6.028 14.2544 5.124 14.4464 4.388 14.8304C3.652 15.2304 3.1 15.7584 2.732 16.4144C2.38 17.0704 2.204 17.7904 2.204 18.5744ZM18.26 30.3739L0.499999 30.3739L0.499999 28.1899L18.26 28.1899L18.26 30.3739ZM18.26 36.2802L0.499998 36.2802L0.499998 34.0962L18.26 34.0962L18.26 36.2802ZM0.283998 45.7384C0.283998 44.5064 0.563998 43.3864 1.124 42.3784C1.684 41.3864 2.476 40.6024 3.5 40.0264C4.54 39.4664 5.74 39.1864 7.1 39.1864C8.444 39.1864 9.628 39.4744 10.652 40.0504C11.692 40.6424 12.484 41.4424 13.028 42.4504C13.588 43.4584 13.868 44.5864 13.868 45.8344C13.868 47.0824 13.588 48.2104 13.028 49.2184C12.484 50.2264 11.7 51.0184 10.676 51.5944C9.652 52.1864 8.46 52.4824 7.1 52.4824C5.74 52.4824 4.54 52.1784 3.5 51.5704C2.476 50.9784 1.684 50.1704 1.124 49.1464C0.563998 48.1224 0.283998 46.9864 0.283998 45.7384ZM2.204 45.7384C2.204 46.5224 2.388 47.2584 2.756 47.9464C3.124 48.6344 3.676 49.1864 4.412 49.6024C5.148 50.0344 6.044 50.2504 7.1 50.2504C8.156 50.2504 9.052 50.0424 9.788 49.6264C10.524 49.2104 11.068 48.6664 11.42 47.9944C11.788 47.3224 11.972 46.5944 11.972 45.8104C11.972 45.0104 11.788 44.2744 11.42 43.6024C11.068 42.9464 10.524 42.4184 9.788 42.0184C9.052 41.6184 8.156 41.4184 7.1 41.4184C6.028 41.4184 5.124 41.6104 4.388 41.9944C3.652 42.3944 3.1 42.9224 2.732 43.5784C2.38 44.2344 2.204 44.9544 2.204 45.7384ZM13.652 72.874L0.499997 68.77L0.499997 66.514L10.94 63.346L0.499997 60.178L0.499997 57.922L13.652 53.794L13.652 56.026L2.612 59.05L13.652 62.314L13.652 64.546L2.588 67.738L13.652 70.714L13.652 72.874ZM17.108 98.4079L0.499996 98.4079L0.499996 96.2239L12.884 96.2239L0.499996 90.7039L0.499996 89.1679L12.908 83.6239L0.499996 83.6239L0.499996 81.4399L17.108 81.4399L17.108 83.7919L3.38 89.9359L17.108 96.0799L17.108 98.4079ZM7.58 114.112C7.164 114.112 6.724 114.088 6.26 114.04L6.26 103.528C4.964 103.608 3.948 104.048 3.212 104.848C2.492 105.664 2.132 106.648 2.132 107.8C2.132 108.744 2.348 109.528 2.78 110.152C3.228 110.792 3.82 111.24 4.556 111.496L4.556 113.848C3.292 113.496 2.26 112.792 1.46 111.736C0.675995 110.68 0.283995 109.368 0.283995 107.8C0.283995 106.552 0.563995 105.432 1.124 104.44C1.684 103.464 2.476 102.696 3.5 102.136C4.54 101.576 5.74 101.296 7.1 101.296C8.46 101.296 9.652 101.568 10.676 102.112C11.7 102.656 12.484 103.416 13.028 104.392C13.588 105.384 13.868 106.52 13.868 107.8C13.868 109.048 13.596 110.152 13.052 111.112C12.508 112.072 11.756 112.808 10.796 113.32C9.852 113.848 8.78 114.112 7.58 114.112ZM8.036 111.856C8.868 111.856 9.58 111.672 10.172 111.304C10.78 110.936 11.236 110.432 11.54 109.792C11.86 109.168 12.02 108.472 12.02 107.704C12.02 106.6 11.668 105.656 10.964 104.872C10.26 104.104 9.284 103.664 8.036 103.552L8.036 111.856Z" fill="#EEEEEE"/>
</svg>
