<svg width="805" height="204" viewBox="0 0 805 204" fill="none" xmlns="http://www.w3.org/2000/svg">
<g style="mix-blend-mode:screen" opacity="0.5">
<path d="M172.833 3.09999V202H124.383V120.117H49.0167V202H0.566668V3.09999H49.0167V81.0167H124.383V3.09999H172.833ZM250.593 41.9167V82.15H315.476V119.55H250.593V163.183H323.976V202H202.143V3.09999H323.976V41.9167H250.593ZM398.214 164.6H461.681V202H349.764V3.09999H398.214V164.6ZM527.573 164.6H591.04V202H479.123V3.09999H527.573V164.6ZM702.549 203.983C683.849 203.983 666.66 199.639 650.983 190.95C635.494 182.261 623.122 170.172 613.866 154.683C604.799 139.006 600.266 121.439 600.266 101.983C600.266 82.5278 604.799 65.0555 613.866 49.5666C623.122 34.0778 635.494 21.9889 650.983 13.3C666.66 4.6111 683.849 0.266656 702.549 0.266656C721.249 0.266656 738.344 4.6111 753.833 13.3C769.51 21.9889 781.788 34.0778 790.666 49.5666C799.733 65.0555 804.266 82.5278 804.266 101.983C804.266 121.439 799.733 139.006 790.666 154.683C781.599 170.172 769.322 182.261 753.833 190.95C738.344 199.639 721.249 203.983 702.549 203.983ZM702.549 159.783C718.416 159.783 731.072 154.494 740.516 143.917C750.149 133.339 754.966 119.361 754.966 101.983C754.966 84.4167 750.149 70.4389 740.516 60.05C731.072 49.4722 718.416 44.1833 702.549 44.1833C686.494 44.1833 673.649 49.3778 664.016 59.7667C654.572 70.1555 649.849 84.2278 649.849 101.983C649.849 119.55 654.572 133.622 664.016 144.2C673.649 154.589 686.494 159.783 702.549 159.783Z" fill="#393E46"/>
</g>
</svg>
