<svg width="43" height="67" viewBox="0 0 43 67" fill="none" xmlns="http://www.w3.org/2000/svg">
<path fill-rule="evenodd" clip-rule="evenodd" d="M34.4348 64.7972C34.4351 65.0532 34.3849 65.3067 34.2871 65.5433C34.1893 65.7798 34.0458 65.9947 33.8648 66.1758C33.6838 66.3568 33.4688 66.5003 33.2323 66.5981C32.9957 66.6959 32.7422 66.7461 32.4862 66.7457L10.469 66.7457C10.213 66.7461 9.95952 66.6959 9.72297 66.5981C9.48642 66.5003 9.27149 66.3568 9.09048 66.1758C8.90948 65.9947 8.76597 65.7798 8.66816 65.5433C8.57035 65.3067 8.52017 65.0532 8.5205 64.7972L8.5205 54.328L1.68415 42.9286C1.16337 42.0608 0.877129 41.0726 0.853489 40.0608C0.829847 39.049 1.06962 38.0485 1.54929 37.1573L21.4776 0.143645L41.4087 37.1601C41.8874 38.0506 42.1266 39.0501 42.103 40.0608C42.0793 41.0715 41.7936 42.0587 41.2739 42.9259L34.4348 54.3225L34.4348 64.7972ZM31.3854 51.8401L37.9355 40.925C38.1095 40.6354 38.205 40.3054 38.2127 39.9676C38.2204 39.6298 38.1401 39.2958 37.9795 38.9985L21.4804 8.35332L4.97572 39.004C4.81712 39.3006 4.73806 39.6331 4.74626 39.9693C4.75446 40.3055 4.84964 40.6338 5.02251 40.9223L11.5726 51.8428L31.3881 51.8428L31.3854 51.8401Z" fill="#00ADB5"/>
</svg>
