<svg width="55" height="56" viewBox="0 0 55 56" fill="none" xmlns="http://www.w3.org/2000/svg">
<path d="M24.3924 2.75964C26.3153 1.64947 28.6843 1.64947 30.6072 2.75964L47.8049 12.6887C49.7278 13.7989 50.9123 15.8506 50.9123 18.0709V37.9292C50.9123 40.1495 49.7278 42.2012 47.8049 43.3113L30.6072 53.2405C28.6843 54.3506 26.3153 54.3506 24.3924 53.2405L7.19467 43.3113C5.2718 42.2012 4.08727 40.1495 4.08727 37.9292V18.0709C4.08727 15.8506 5.2718 13.7989 7.19468 12.6887L24.3924 2.75964Z" fill="#393E46"/>
<path fill-rule="evenodd" clip-rule="evenodd" d="M22.9001 38.0174C24.0898 38.0722 24.4692 38.0844 27.4999 38.0844C30.5305 38.0844 30.9099 38.0712 32.0986 38.0174C33.2873 37.9637 34.0988 37.774 34.8088 37.4991C35.5522 37.2182 36.2267 36.779 36.7846 36.211C37.3526 35.6541 37.7907 34.9807 38.0707 34.2362C38.3466 33.5262 38.5352 32.7148 38.59 31.528C38.6448 30.3363 38.6569 29.9569 38.6569 26.9273C38.6569 23.8966 38.6438 23.5173 38.59 22.3275C38.5362 21.1408 38.3466 20.3294 38.0707 19.6194C37.7907 18.8748 37.3518 18.2002 36.7846 17.6425C36.2267 17.0745 35.5522 16.6364 34.8088 16.3564C34.0988 16.0806 33.2873 15.8919 32.1006 15.8371C30.9099 15.7824 30.5305 15.7702 27.4999 15.7702C24.4692 15.7702 24.0898 15.7834 22.9001 15.8371C21.7134 15.8909 20.902 16.0806 20.192 16.3564C19.4474 16.6364 18.7728 17.0753 18.2151 17.6425C17.6475 18.1997 17.2083 18.874 16.928 19.6184C16.6531 20.3284 16.4645 21.1398 16.4097 22.3265C16.3549 23.5183 16.3428 23.8976 16.3428 26.9273C16.3428 29.9579 16.356 30.3373 16.4097 31.526C16.4635 32.7148 16.6531 33.5262 16.928 34.2362C17.2087 34.9806 17.6483 35.6548 18.2161 36.212C18.773 36.7795 19.447 37.2187 20.191 37.4991C20.9009 37.774 21.7134 37.9626 22.9001 38.0174ZM32.0083 36.0091C30.8318 36.0629 30.4788 36.074 27.4999 36.074C24.5209 36.074 24.1679 36.0629 22.9914 36.0091C21.9031 35.9594 21.3127 35.7779 20.9192 35.6247C20.3989 35.4219 20.0266 35.1815 19.6361 34.791C19.266 34.4309 18.9811 33.9925 18.8024 33.5079C18.6492 33.1144 18.4677 32.5241 18.418 31.4357C18.3642 30.2592 18.3531 29.9062 18.3531 26.9273C18.3531 23.9483 18.3642 23.5954 18.418 22.4188C18.4677 21.3305 18.6492 20.7402 18.8024 20.3466C18.9809 19.8628 19.2659 19.4236 19.6361 19.0636C19.9962 18.6933 20.4354 18.4083 20.9192 18.2298C21.3127 18.0767 21.9031 17.8951 22.9914 17.8454C24.1679 17.7916 24.5199 17.7805 27.4999 17.7805C30.4798 17.7805 30.8318 17.7916 32.0083 17.8454C33.0967 17.8951 33.687 18.0767 34.0805 18.2298C34.6008 18.4327 34.9731 18.6731 35.3636 19.0636C35.7338 19.4236 36.0188 19.8628 36.1973 20.3466C36.3505 20.7402 36.532 21.3305 36.5817 22.4188C36.6355 23.5954 36.6466 23.9483 36.6466 26.9273C36.6466 29.9062 36.6355 30.2592 36.5817 31.4357C36.532 32.5241 36.3505 33.1144 36.1973 33.5079C35.9945 34.0282 35.7541 34.4005 35.3636 34.791C35.0034 35.1611 34.565 35.446 34.0805 35.6247C33.687 35.7779 33.0967 35.9594 32.0083 36.0091ZM26.0748 23.4878C26.8707 23.1565 27.7569 23.1118 28.582 23.3613C29.4072 23.6108 30.1201 24.1391 30.5991 24.8559C31.0781 25.5726 31.2933 26.4334 31.2081 27.2913C31.1229 28.1491 30.7425 28.9508 30.1319 29.5593C29.7427 29.9483 29.272 30.2462 28.7538 30.4315C28.2357 30.6167 27.6829 30.6848 27.1352 30.6308C26.5876 30.5768 26.0587 30.402 25.5867 30.1191C25.1147 29.8361 24.7113 29.4521 24.4056 28.9945C24.0998 28.537 23.8994 28.0173 23.8185 27.473C23.7377 26.9287 23.7786 26.3732 23.9383 25.8465C24.0979 25.3199 24.3723 24.8352 24.7417 24.4273C25.1112 24.0195 25.5665 23.6986 26.0748 23.4878ZM23.4448 30.9824C23.9773 31.5149 24.6095 31.9373 25.3053 32.2255C26.001 32.5137 26.7468 32.662 27.4999 32.662C28.253 32.662 28.9987 32.5137 29.6945 32.2255C30.3902 31.9373 31.0224 31.5149 31.5549 30.9824C32.0875 30.4498 32.5099 29.8176 32.7981 29.1219C33.0863 28.4261 33.2346 27.6804 33.2346 26.9273C33.2346 26.1742 33.0863 25.4284 32.7981 24.7327C32.5099 24.0369 32.0875 23.4047 31.5549 22.8722C30.4795 21.7967 29.0208 21.1925 27.4999 21.1925C25.9789 21.1925 24.5202 21.7967 23.4448 22.8722C22.3693 23.9477 21.7651 25.4063 21.7651 26.9273C21.7651 28.4482 22.3693 29.9069 23.4448 30.9824ZM34.5065 31.808C34.6385 31.9325 34.7441 32.0822 34.8172 32.2482C34.8903 32.4143 34.9293 32.5933 34.9319 32.7747C34.9346 32.9561 34.9008 33.1361 34.8326 33.3042C34.7644 33.4723 34.6631 33.6251 34.5349 33.7533C34.4066 33.8816 34.2539 33.9828 34.0858 34.051C33.9177 34.1192 33.7376 34.153 33.5562 34.1504C33.3748 34.1477 33.1958 34.1087 33.0297 34.0357C32.8637 33.9626 32.714 33.8569 32.5895 33.725C32.3474 33.4683 32.2149 33.1274 32.22 32.7747C32.2252 32.4219 32.3676 32.085 32.6171 31.8355C32.8665 31.5861 33.2034 31.4436 33.5562 31.4385C33.909 31.4333 34.2499 31.5659 34.5065 31.808Z" fill="#EEEEEE"/>
</svg>
