<svg width="27" height="27" viewBox="0 0 27 27" fill="none" xmlns="http://www.w3.org/2000/svg">
<path d="M0 1.6875C0 1.23995 0.17779 0.810725 0.494257 0.494257C0.810725 0.17779 1.23995 0 1.6875 0H5.32069C5.72013 0.000183885 6.10655 0.142055 6.41122 0.400376C6.7159 0.658696 6.91905 1.01672 6.98456 1.41075L8.23331 8.89481C8.29298 9.25124 8.23664 9.61741 8.0726 9.93943C7.90856 10.2614 7.64547 10.5223 7.32206 10.6836L4.70981 11.988C5.64656 14.3094 7.04166 16.4182 8.81175 18.1883C10.5818 19.9583 12.6906 21.3534 15.012 22.2902L16.3181 19.6779C16.4793 19.3548 16.7399 19.092 17.0616 18.928C17.3832 18.7639 17.749 18.7074 18.1052 18.7667L25.5892 20.0154C25.9833 20.0809 26.3413 20.2841 26.5996 20.5888C26.8579 20.8934 26.9998 21.2799 27 21.6793V25.3125C27 25.7601 26.8222 26.1893 26.5057 26.5057C26.1893 26.8222 25.7601 27 25.3125 27H21.9375C9.82125 27 0 17.1787 0 5.0625V1.6875Z" fill="#EEEEEE"/>
</svg>
