<svg width="676" height="75" viewBox="0 0 676 75" fill="none" xmlns="http://www.w3.org/2000/svg">
<path opacity="0.5" d="M36 74L21.4 47.5H17.3V74H0.2V3.8H28.9C34.4333 3.8 39.1333 4.76666 43 6.7C46.9333 8.63333 49.8667 11.3 51.8 14.7C53.7333 18.0333 54.7 21.7667 54.7 25.9C54.7 30.5667 53.3667 34.7333 50.7 38.4C48.1 42.0667 44.2333 44.6667 39.1 46.2L55.3 74H36ZM17.3 35.4H27.9C31.0333 35.4 33.3667 34.6333 34.9 33.1C36.5 31.5667 37.3 29.4 37.3 26.6C37.3 23.9333 36.5 21.8333 34.9 20.3C33.3667 18.7667 31.0333 18 27.9 18H17.3V35.4ZM116.034 45.2C116.034 46.8 115.934 48.4667 115.734 50.2H77.0344C77.301 53.6667 78.401 56.3333 80.3344 58.2C82.3344 60 84.7677 60.9 87.6344 60.9C91.901 60.9 94.8677 59.1 96.5344 55.5H114.734C113.801 59.1667 112.101 62.4667 109.634 65.4C107.234 68.3333 104.201 70.6333 100.534 72.3C96.8677 73.9667 92.7677 74.8 88.2344 74.8C82.7677 74.8 77.901 73.6333 73.6344 71.3C69.3677 68.9667 66.0344 65.6333 63.6344 61.3C61.2344 56.9667 60.0344 51.9 60.0344 46.1C60.0344 40.3 61.201 35.2333 63.5344 30.9C65.9344 26.5667 69.2677 23.2333 73.5344 20.9C77.801 18.5667 82.701 17.4 88.2344 17.4C93.6344 17.4 98.4344 18.5333 102.634 20.8C106.834 23.0667 110.101 26.3 112.434 30.5C114.834 34.7 116.034 39.6 116.034 45.2ZM98.5344 40.7C98.5344 37.7667 97.5344 35.4333 95.5344 33.7C93.5344 31.9667 91.0344 31.1 88.0344 31.1C85.1677 31.1 82.7344 31.9333 80.7344 33.6C78.801 35.2667 77.601 37.6333 77.1344 40.7H98.5344ZM119.655 46.1C119.655 40.3 120.822 35.2333 123.155 30.9C125.555 26.5667 128.855 23.2333 133.055 20.9C137.322 18.5667 142.189 17.4 147.655 17.4C154.655 17.4 160.489 19.2333 165.155 22.9C169.889 26.5667 172.989 31.7333 174.455 38.4H156.255C154.722 34.1333 151.755 32 147.355 32C144.222 32 141.722 33.2333 139.855 35.7C137.989 38.1 137.055 41.5667 137.055 46.1C137.055 50.6333 137.989 54.1333 139.855 56.6C141.722 59 144.222 60.2 147.355 60.2C151.755 60.2 154.722 58.0667 156.255 53.8H174.455C172.989 60.3333 169.889 65.4667 165.155 69.2C160.422 72.9333 154.589 74.8 147.655 74.8C142.189 74.8 137.322 73.6333 133.055 71.3C128.855 68.9667 125.555 65.6333 123.155 61.3C120.822 56.9667 119.655 51.9 119.655 46.1ZM234.202 45.2C234.202 46.8 234.102 48.4667 233.902 50.2H195.202C195.469 53.6667 196.569 56.3333 198.502 58.2C200.502 60 202.936 60.9 205.802 60.9C210.069 60.9 213.036 59.1 214.702 55.5H232.902C231.969 59.1667 230.269 62.4667 227.802 65.4C225.402 68.3333 222.369 70.6333 218.702 72.3C215.036 73.9667 210.936 74.8 206.402 74.8C200.936 74.8 196.069 73.6333 191.802 71.3C187.536 68.9667 184.202 65.6333 181.802 61.3C179.402 56.9667 178.202 51.9 178.202 46.1C178.202 40.3 179.369 35.2333 181.702 30.9C184.102 26.5667 187.436 23.2333 191.702 20.9C195.969 18.5667 200.869 17.4 206.402 17.4C211.802 17.4 216.602 18.5333 220.802 20.8C225.002 23.0667 228.269 26.3 230.602 30.5C233.002 34.7 234.202 39.6 234.202 45.2ZM216.702 40.7C216.702 37.7667 215.702 35.4333 213.702 33.7C211.702 31.9667 209.202 31.1 206.202 31.1C203.336 31.1 200.902 31.9333 198.902 33.6C196.969 35.2667 195.769 37.6333 195.302 40.7H216.702ZM275.223 17.6C281.757 17.6 286.957 19.7333 290.823 24C294.757 28.2 296.723 34 296.723 41.4V74H279.723V43.7C279.723 39.9667 278.757 37.0667 276.823 35C274.89 32.9333 272.29 31.9 269.023 31.9C265.757 31.9 263.157 32.9333 261.223 35C259.29 37.0667 258.323 39.9667 258.323 43.7V74H241.223V18.2H258.323V25.6C260.057 23.1333 262.39 21.2 265.323 19.8C268.257 18.3333 271.557 17.6 275.223 17.6ZM337.706 59.5V74H329.006C322.806 74 317.973 72.5 314.506 69.5C311.04 66.4333 309.306 61.4667 309.306 54.6V32.4H302.506V18.2H309.306V4.6H326.406V18.2H337.606V32.4H326.406V54.8C326.406 56.4667 326.806 57.6667 327.606 58.4C328.406 59.1333 329.74 59.5 331.606 59.5H337.706ZM461.023 3.8L442.723 74H422.023L410.823 27.8L399.223 74H378.523L360.723 3.8H379.023L389.123 54.9L401.623 3.8H420.423L432.423 54.9L442.623 3.8H461.023ZM492.998 74.8C487.532 74.8 482.598 73.6333 478.198 71.3C473.865 68.9667 470.432 65.6333 467.898 61.3C465.432 56.9667 464.198 51.9 464.198 46.1C464.198 40.3667 465.465 35.3333 467.998 31C470.532 26.6 473.998 23.2333 478.398 20.9C482.798 18.5667 487.732 17.4 493.198 17.4C498.665 17.4 503.598 18.5667 507.998 20.9C512.398 23.2333 515.865 26.6 518.398 31C520.932 35.3333 522.198 40.3667 522.198 46.1C522.198 51.8333 520.898 56.9 518.298 61.3C515.765 65.6333 512.265 68.9667 507.798 71.3C503.398 73.6333 498.465 74.8 492.998 74.8ZM492.998 60C496.265 60 499.032 58.8 501.298 56.4C503.632 54 504.798 50.5667 504.798 46.1C504.798 41.6333 503.665 38.2 501.398 35.8C499.198 33.4 496.465 32.2 493.198 32.2C489.865 32.2 487.098 33.4 484.898 35.8C482.698 38.1333 481.598 41.5667 481.598 46.1C481.598 50.5667 482.665 54 484.798 56.4C486.998 58.8 489.732 60 492.998 60ZM546.37 27.5C548.37 24.4333 550.87 22.0333 553.87 20.3C556.87 18.5 560.204 17.6 563.87 17.6V35.7H559.17C554.904 35.7 551.704 36.6333 549.57 38.5C547.437 40.3 546.37 43.5 546.37 48.1V74H529.27V18.2H546.37V27.5ZM604.144 74L587.144 50.6V74H570.044V-9.53674e-07H587.144V40.9L604.044 18.2H625.144L601.944 46.2L625.344 74H604.144ZM652.56 74.8C647.693 74.8 643.36 73.9667 639.56 72.3C635.76 70.6333 632.76 68.3667 630.56 65.5C628.36 62.5667 627.127 59.3 626.86 55.7H643.76C643.96 57.6333 644.86 59.2 646.46 60.4C648.06 61.6 650.027 62.2 652.36 62.2C654.493 62.2 656.127 61.8 657.26 61C658.46 60.1333 659.06 59.0333 659.06 57.7C659.06 56.1 658.227 54.9333 656.56 54.2C654.893 53.4 652.193 52.5333 648.46 51.6C644.46 50.6667 641.127 49.7 638.46 48.7C635.793 47.6333 633.493 46 631.56 43.8C629.627 41.5333 628.66 38.5 628.66 34.7C628.66 31.5 629.527 28.6 631.26 26C633.06 23.3333 635.66 21.2333 639.06 19.7C642.527 18.1667 646.627 17.4 651.36 17.4C658.36 17.4 663.86 19.1333 667.86 22.6C671.927 26.0667 674.26 30.6667 674.86 36.4H659.06C658.793 34.4667 657.927 32.9333 656.46 31.8C655.06 30.6667 653.193 30.1 650.86 30.1C648.86 30.1 647.327 30.5 646.26 31.3C645.193 32.0333 644.66 33.0667 644.66 34.4C644.66 36 645.493 37.2 647.16 38C648.893 38.8 651.56 39.6 655.16 40.4C659.293 41.4667 662.66 42.5333 665.26 43.6C667.86 44.6 670.127 46.2667 672.06 48.6C674.06 50.8667 675.093 53.9333 675.16 57.8C675.16 61.0667 674.227 64 672.36 66.6C670.56 69.1333 667.927 71.1333 664.46 72.6C661.06 74.0667 657.093 74.8 652.56 74.8Z" fill="#393E46"/>
</svg>
