<svg width="250" height="82" viewBox="0 0 250 82" fill="none" xmlns="http://www.w3.org/2000/svg">
<path opacity="0.5" d="M27.6313 81.7C22.4979 81.7 17.8979 80.8667 13.8313 79.2C9.76458 77.5333 6.49792 75.0667 4.03125 71.8C1.63125 68.5333 0.364584 64.6 0.23125 60H18.4313C18.6979 62.6 19.5979 64.6 21.1313 66C22.6646 67.3333 24.6646 68 27.1313 68C29.6646 68 31.6646 67.4333 33.1313 66.3C34.5979 65.1 35.3313 63.4667 35.3313 61.4C35.3313 59.6667 34.7313 58.2333 33.5313 57.1C32.3979 55.9667 30.9646 55.0333 29.2313 54.3C27.5646 53.5667 25.1646 52.7333 22.0313 51.8C17.4979 50.4 13.7979 49 10.9313 47.6C8.06458 46.2 5.59792 44.1333 3.53125 41.4C1.46458 38.6667 0.43125 35.1 0.43125 30.7C0.43125 24.1667 2.79792 19.0667 7.53125 15.4C12.2646 11.6667 18.4313 9.8 26.0313 9.8C33.7646 9.8 39.9979 11.6667 44.7313 15.4C49.4646 19.0667 51.9979 24.2 52.3313 30.8H33.8313C33.6979 28.5333 32.8646 26.7667 31.3313 25.5C29.7979 24.1667 27.8313 23.5 25.4312 23.5C23.3646 23.5 21.6979 24.0667 20.4313 25.2C19.1646 26.2667 18.5313 27.8333 18.5313 29.9C18.5313 32.1667 19.5979 33.9333 21.7312 35.2C23.8646 36.4667 27.1979 37.8333 31.7313 39.3C36.2646 40.8333 39.9313 42.3 42.7313 43.7C45.5979 45.1 48.0646 47.1333 50.1313 49.8C52.1979 52.4667 53.2313 55.9 53.2313 60.1C53.2313 64.1 52.1979 67.7333 50.1313 71C48.1313 74.2667 45.1979 76.8667 41.3313 78.8C37.4646 80.7333 32.8979 81.7 27.6313 81.7ZM95.8547 81L78.8547 57.6V81H61.7547V7H78.8547V47.9L95.7547 25.2H116.855L93.6547 53.2L117.055 81H95.8547ZM130.171 19.4C127.171 19.4 124.704 18.5333 122.771 16.8C120.904 15 119.971 12.8 119.971 10.2C119.971 7.53333 120.904 5.33333 122.771 3.6C124.704 1.79999 127.171 0.899994 130.171 0.899994C133.104 0.899994 135.504 1.79999 137.371 3.6C139.304 5.33333 140.271 7.53333 140.271 10.2C140.271 12.8 139.304 15 137.371 16.8C135.504 18.5333 133.104 19.4 130.171 19.4ZM138.671 25.2V81H121.571V25.2H138.671ZM166.163 7V81H149.063V7H166.163ZM193.655 7V81H176.555V7H193.655ZM226.748 81.8C221.881 81.8 217.548 80.9667 213.748 79.3C209.948 77.6333 206.948 75.3667 204.748 72.5C202.548 69.5667 201.314 66.3 201.048 62.7H217.948C218.148 64.6333 219.048 66.2 220.648 67.4C222.248 68.6 224.214 69.2 226.548 69.2C228.681 69.2 230.314 68.8 231.448 68C232.648 67.1333 233.248 66.0333 233.248 64.7C233.248 63.1 232.414 61.9333 230.748 61.2C229.081 60.4 226.381 59.5333 222.648 58.6C218.648 57.6667 215.314 56.7 212.648 55.7C209.981 54.6333 207.681 53 205.748 50.8C203.814 48.5333 202.848 45.5 202.848 41.7C202.848 38.5 203.714 35.6 205.448 33C207.248 30.3333 209.848 28.2333 213.248 26.7C216.714 25.1667 220.814 24.4 225.548 24.4C232.548 24.4 238.048 26.1333 242.048 29.6C246.114 33.0667 248.448 37.6667 249.048 43.4H233.248C232.981 41.4667 232.114 39.9333 230.648 38.8C229.248 37.6667 227.381 37.1 225.048 37.1C223.048 37.1 221.514 37.5 220.448 38.3C219.381 39.0333 218.848 40.0667 218.848 41.4C218.848 43 219.681 44.2 221.348 45C223.081 45.8 225.748 46.6 229.348 47.4C233.481 48.4667 236.848 49.5333 239.448 50.6C242.048 51.6 244.314 53.2667 246.248 55.6C248.248 57.8667 249.281 60.9333 249.348 64.8C249.348 68.0667 248.414 71 246.548 73.6C244.748 76.1333 242.114 78.1333 238.648 79.6C235.248 81.0667 231.281 81.8 226.748 81.8Z" fill="#393E46"/>
</svg>
