<svg width="464" height="75" viewBox="0 0 464 75" fill="none" xmlns="http://www.w3.org/2000/svg">
<path opacity="0.5" d="M100.8 3.8L82.5 74H61.8L50.6 27.8L39 74H18.3L0.5 3.8H18.8L28.9 54.9L41.4 3.8H60.2L72.2 54.9L82.4 3.8H100.8ZM141.676 17.6C148.076 17.6 153.209 19.7333 157.076 24C160.942 28.2 162.876 34 162.876 41.4V74H145.876V43.7C145.876 39.9667 144.909 37.0667 142.976 35C141.042 32.9333 138.442 31.9 135.176 31.9C131.909 31.9 129.309 32.9333 127.376 35C125.442 37.0667 124.476 39.9667 124.476 43.7V74H107.376V-9.53674e-07H124.476V25.7C126.209 23.2333 128.576 21.2667 131.576 19.8C134.576 18.3333 137.942 17.6 141.676 17.6ZM169.359 46C169.359 40.2667 170.425 35.2333 172.559 30.9C174.759 26.5667 177.725 23.2333 181.459 20.9C185.192 18.5667 189.359 17.4 193.959 17.4C197.892 17.4 201.325 18.2 204.259 19.8C207.259 21.4 209.559 23.5 211.159 26.1V18.2H228.259V74H211.159V66.1C209.492 68.7 207.159 70.8 204.159 72.4C201.225 74 197.792 74.8 193.859 74.8C189.325 74.8 185.192 73.6333 181.459 71.3C177.725 68.9 174.759 65.5333 172.559 61.2C170.425 56.8 169.359 51.7333 169.359 46ZM211.159 46.1C211.159 41.8333 209.959 38.4667 207.559 36C205.225 33.5333 202.359 32.3 198.959 32.3C195.559 32.3 192.659 33.5333 190.259 36C187.925 38.4 186.759 41.7333 186.759 46C186.759 50.2667 187.925 53.6667 190.259 56.2C192.659 58.6667 195.559 59.9 198.959 59.9C202.359 59.9 205.225 58.6667 207.559 56.2C209.959 53.7333 211.159 50.3667 211.159 46.1ZM269.73 59.5V74H261.03C254.83 74 249.996 72.5 246.53 69.5C243.063 66.4333 241.33 61.4667 241.33 54.6V32.4H234.53V18.2H241.33V4.6H258.43V18.2H269.63V32.4H258.43V54.8C258.43 56.4667 258.83 57.6667 259.63 58.4C260.43 59.1333 261.763 59.5 263.63 59.5H269.73ZM313.546 3.8V74H296.446V3.8H313.546ZM339.73 46C339.73 40.2667 340.796 35.2333 342.93 30.9C345.13 26.5667 348.096 23.2333 351.83 20.9C355.563 18.5667 359.73 17.4 364.33 17.4C367.996 17.4 371.33 18.1667 374.33 19.7C377.396 21.2333 379.796 23.3 381.53 25.9V-9.53674e-07H398.63V74H381.53V66C379.93 68.6667 377.63 70.8 374.63 72.4C371.696 74 368.263 74.8 364.33 74.8C359.73 74.8 355.563 73.6333 351.83 71.3C348.096 68.9 345.13 65.5333 342.93 61.2C340.796 56.8 339.73 51.7333 339.73 46ZM381.53 46.1C381.53 41.8333 380.33 38.4667 377.93 36C375.596 33.5333 372.73 32.3 369.33 32.3C365.93 32.3 363.03 33.5333 360.63 36C358.296 38.4 357.13 41.7333 357.13 46C357.13 50.2667 358.296 53.6667 360.63 56.2C363.03 58.6667 365.93 59.9 369.33 59.9C372.73 59.9 375.596 58.6667 377.93 56.2C380.33 53.7333 381.53 50.3667 381.53 46.1ZM434.401 74.8C428.934 74.8 424.001 73.6333 419.601 71.3C415.267 68.9667 411.834 65.6333 409.301 61.3C406.834 56.9667 405.601 51.9 405.601 46.1C405.601 40.3667 406.867 35.3333 409.401 31C411.934 26.6 415.401 23.2333 419.801 20.9C424.201 18.5667 429.134 17.4 434.601 17.4C440.067 17.4 445.001 18.5667 449.401 20.9C453.801 23.2333 457.267 26.6 459.801 31C462.334 35.3333 463.601 40.3667 463.601 46.1C463.601 51.8333 462.301 56.9 459.701 61.3C457.167 65.6333 453.667 68.9667 449.201 71.3C444.801 73.6333 439.867 74.8 434.401 74.8ZM434.401 60C437.667 60 440.434 58.8 442.701 56.4C445.034 54 446.201 50.5667 446.201 46.1C446.201 41.6333 445.067 38.2 442.801 35.8C440.601 33.4 437.867 32.2 434.601 32.2C431.267 32.2 428.501 33.4 426.301 35.8C424.101 38.1333 423.001 41.5667 423.001 46.1C423.001 50.5667 424.067 54 426.201 56.4C428.401 58.8 431.134 60 434.401 60Z" fill="#393E46"/>
</svg>
